<svg width="980" xmlns="http://www.w3.org/2000/svg" height="749" xmlns:xlink="http://www.w3.org/1999/xlink" viewBox="0 0 980 749">
    <defs>
        <linearGradient id="lg1" x1="100%" y2="0%" x2="0%" y1="0%">
            <stop offset="0" stop-color="#a50514"/>
            <stop offset="0.15" stop-color="#da474c"/>
            <stop offset="0.25" stop-color="#eab3b4"/>
            <stop offset="0.52" stop-color="#bc0718"/>
            <stop offset="0.69" stop-color="#a70514"/>
            <stop offset="0.8" stop-color="#9e0512"/>
            <stop offset="0.97" stop-color="#950411"/>
            <stop offset="1" stop-color="#ab0515"/>
        </linearGradient>
        <linearGradient id="lg2" x1="100%" y2="0%" x2="0%" y1="0%">
            <stop offset="0" stop-color="#0085b6"/>
            <stop offset="0.15" stop-color="#45b4ef"/>
            <stop offset="0.25" stop-color="#b3d7f6"/>
            <stop offset="0.52" stop-color="#0098d0"/>
            <stop offset="0.69" stop-color="#0087b9"/>
            <stop offset="0.8" stop-color="#007faf"/>
            <stop offset="0.97" stop-color="#0078a5"/>
            <stop offset="1" stop-color="#008abe"/>
        </linearGradient>
        <linearGradient id="lg3" x1="100%" y2="0%" x2="0%" y1="0%">
            <stop offset="0" stop-color="#00863b"/>
            <stop offset="0.15" stop-color="#45b667"/>
            <stop offset="0.25" stop-color="#b3d8bb"/>
            <stop offset="0.52" stop-color="#009a45"/>
            <stop offset="0.69" stop-color="#00883c"/>
            <stop offset="0.8" stop-color="#008038"/>
            <stop offset="0.97" stop-color="#007935"/>
            <stop offset="1" stop-color="#008c3e"/>
        </linearGradient>
        <linearGradient id="lg4" x1="100%" y2="0%" x2="0%" y1="0%">
            <stop offset="0" stop-color="#c49300"/>
            <stop offset="0.15" stop-color="#ffc545"/>
            <stop offset="0.25" stop-color="#ffdfb3"/>
            <stop offset="0.52" stop-color="#dfa800"/>
            <stop offset="0.69" stop-color="#c79500"/>
            <stop offset="0.8" stop-color="#bc8c00"/>
            <stop offset="0.97" stop-color="#b18400"/>
            <stop offset="1" stop-color="#cb9900"/>
        </linearGradient>
    </defs>
    <g transform="translate(-56,-8)">
        <g id="group1" transform="translate(386.98,425.91)">
            <path fill="url(#lg1)" id="shape2" d="M0,0L0,62.7L0,62.7C0,105.6,86.9,140.3,194,140.3C301.1,140.3,388,105.6,388,62.7L388,0L388,0C388,42.9,301.1,77.6,194,77.6C86.9,77.6,0,42.9,0,0z" fill-rule="evenodd"/>
            <path fill="#d7091d" id="shape3" d="M0,77.6C0,34.7,86.9,0,194,0C301.1,0,388,34.7,388,77.6L388,77.6C388,120.5,301.1,155.2,194,155.2C86.9,155.2,0,120.5,0,77.6z" fill-rule="evenodd" transform="translate(0,-77.6)"/>
        </g>
        <g id="group4" transform="translate(422,375.67)">
            <path fill="url(#lg2)" id="shape5" d="M0,0L0,51.4L0,51.4C0,86.5,71.2,115,159,115C246.8,115,317.9,86.5,317.9,51.4L317.9,0L317.9,0C317.9,35.1,246.8,63.6,159,63.6C71.2,63.6,0,35.1,0,0z" fill-rule="evenodd"/>
            <path fill="#0085b6" id="shape6" d="M0,63.6C0,28.5,71.2,0,159,0C246.8,0,317.9,28.5,317.9,63.6L317.9,63.6C317.9,98.7,246.8,127.2,159,127.2C71.2,127.2,0,98.7,0,63.6z" fill-rule="evenodd" transform="translate(0,-63.62)"/>
        </g>
        <g id="group7" transform="translate(447.46,329.81)">
            <path fill="url(#lg3)" id="shape8" d="M0,0L0,43.2L0,43.2C0,72.7,59.8,96.6,133.5,96.6C207.3,96.6,267,72.7,267,43.2L267,0L267,0C267,29.5,207.3,53.4,133.5,53.4C59.8,53.4,0,29.5,0,0z" fill-rule="evenodd"/>
            <path fill="#00863b" id="shape9" d="M0,53.4C0,23.9,59.8,0,133.5,0C207.3,0,267,23.9,267,53.4L267,53.4C267,82.9,207.3,106.8,133.5,106.8C59.8,106.8,0,82.9,0,53.4z" fill-rule="evenodd" transform="translate(0,-53.41)"/>
        </g>
        <g id="group10" transform="translate(479.62,285.93)">
            <path fill="url(#lg4)" id="shape11" d="M0,0L0,32.8L0,32.8C0,55.2,45.4,73.3,101.4,73.3C157.3,73.3,202.7,55.2,202.7,32.8L202.7,0L202.7,0C202.7,22.4,157.3,40.5,101.4,40.5C45.4,40.5,0,22.4,0,0z" fill-rule="evenodd"/>
            <path fill="#c49300" id="shape12" d="M0,40.5C0,18.2,45.4,0,101.4,0C157.3,0,202.7,18.2,202.7,40.5L202.7,40.5C202.7,62.9,157.3,81.1,101.4,81.1C45.4,81.1,0,62.9,0,40.5z" fill-rule="evenodd" transform="translate(0,-40.54)"/>
        </g>
        <g id="shape13" transform="translate(570.35,504.19)">
            <text xml:space="preserve" style="fill:#191919;font-family:微软雅黑;font-size:28pt;font-weight:bold">
                <tspan y="45.2" x="6.1">S</tspan>
            </text>
        </g>
        <g id="shape14" transform="translate(568,439.12)">
            <text xml:space="preserve" style="fill:#191919;font-family:微软雅黑;font-size:26pt;font-weight:bold">
                <tspan y="46.1" x="0.1">W</tspan>
            </text>
        </g>
        <g id="shape15" transform="translate(567.46,375.67)">
            <text xml:space="preserve" style="fill:#191919;font-family:微软雅黑;font-size:24pt;font-weight:bold">
                <tspan y="45.4" x="5.6">O</tspan>
            </text>
        </g>
        <g id="shape16" transform="translate(567.46,329.81)">
            <text xml:space="preserve" style="fill:#191919;font-family:微软雅黑;font-size:22pt;font-weight:bold">
                <tspan y="28.5" x="9.6">T</tspan>
            </text>
        </g>
        <g id="group17" transform="translate(533.98,189.25)">
            <g id="group18" transform="translate(22.23,90.28)">
                <path fill="#bab8a9" id="shape19" d="M0,.6L2.4,0L7.7,28.3L5.3,28.9L0,.6z" fill-rule="evenodd"/>
                <path fill="#d4d2c8" id="shape20" d="M0,0L1.3,.9L4.7,23L3.5,22.3L0,0z" fill-rule="evenodd" transform="translate(0.56,5.89)"/>
            </g>
            <g id="group21" transform="translate(35.88,95.36)">
                <path fill="#bab8a9" id="shape22" d="M0,.6L2.4,0L7.7,28.3L5.3,28.9L0,.6z" fill-rule="evenodd"/>
                <path fill="#d4d2c8" id="shape23" d="M0,0L1.3,.9L4.7,23L3.5,22.3L0,0z" fill-rule="evenodd" transform="translate(0.56,5.89)"/>
            </g>
            <g id="group24" transform="translate(3.34,97.27)">
                <path fill="#bab8a9" id="shape25" d="M0,.6L2.4,0L7.7,28.3L5.3,28.9L0,.6z" fill-rule="evenodd"/>
                <path fill="#d4d2c8" id="shape26" d="M0,0L1.3,.9L4.7,23L3.5,22.3L0,0z" fill-rule="evenodd" transform="translate(0.56,5.89)"/>
            </g>
            <path fill="#dad9d1" id="shape27" d="M20.9,0L0,14.9L.5,17.1L20.7,2.4L20.9,0z" fill-rule="evenodd" transform="translate(24.66,101.17)"/>
            <path fill="#b9b6a6" id="shape28" d="M0,10L26.3,0L38.3,5.5L15.9,21.4L0,10z" fill-rule="evenodd" transform="translate(7.27,95.72)"/>
            <path fill="#26343a" id="shape29" d="M10.7,0L11.4,7.7C11.4,7.7,9.9,8.1,9.1,9.3C6.3,7.9,3.1,8.5,3.1,8.5L0,4.9L10.7,0z" fill-rule="evenodd" transform="translate(24.72,76.04)"/>
            <path fill="#a19d88" id="shape30" d="M0,15.4L4.1,0L11.4,25.5L6.4,38.4L0,15.4z" fill-rule="evenodd" transform="translate(6.67,37.02)"/>
            <path fill="#dad9d1" id="shape31" d="M1.8,0L0,.8L7.8,26.3L9.4,25.9L1.8,0z" fill-rule="evenodd" transform="translate(4.86,52.42)"/>
            <path fill="#d4d2c8" id="shape32" d="M6,0L4.6,.5L0,16.5L1.8,15.7L6,0z" fill-rule="evenodd" transform="translate(4.86,36.72)"/>
            <path fill="#b9b6a6" id="shape33" d="M19.1,4.8L5.9,0L0,11.6L19.2,9.7L19.1,4.8z" fill-rule="evenodd" transform="translate(13.21,57.42)"/>
            <path fill="#a19d88" id="shape34" d="M2.8,.9L2.2,0L0,16.1L.5,18.5L2.8,.9z" fill-rule="evenodd" transform="translate(85.93,72.64)"/>
            <path fill="#dad9d1" id="shape35" d="M.8,.8L2.8,0L2,4.4L0,5.2L.8,.8z" fill-rule="evenodd" transform="translate(82.05,73.6)"/>
            <path fill="#a19d88" id="shape36" d="M1.3,1L.7,0L0,4L.5,5.5L1.3,1z" fill-rule="evenodd" transform="translate(81.54,73.36)"/>
            <path fill="#dad9d1" id="shape37" d="M0,3.8L.3,5.6L13.4,2L13.6,0L0,3.8z" fill-rule="evenodd" transform="translate(75.37,71.94)"/>
            <path fill="#a19d88" id="shape38" d="M8.3,13L3.2,0L0,20.5L5.3,35.7L8.3,13z" fill-rule="evenodd" transform="translate(83.65,36.24)"/>
            <path fill="#dad9d1" id="shape39" d="M5.6,.8L7.6,0L2,41.8L0,42.6L5.6,.8z" fill-rule="evenodd" transform="translate(86.43,48.47)"/>
            <path fill="#d4d2c8" id="shape40" d="M0,.3L1.5,0L7.2,12.7L5.2,13.5L0,.3z" fill-rule="evenodd" transform="translate(86.78,35.7)"/>
            <path fill="#b9b6a6" id="shape41" d="M6.2,12.9L8.5,0L13.6,15.2L0,19L6.2,12.9z" fill-rule="evenodd" transform="translate(75.37,56.78)"/>
            <path fill="#e6e9e6" id="shape42" d="M8,76.8L52.7,68.6L35.6,0L0,4.5L8,76.8z" fill-rule="evenodd" transform="translate(28.87,32.04)"/>
            <path fill="#b1b7b6" id="shape43" d="M12.5,0L0,6.8L11,24.3L23.4,16.6L12.5,0z" fill-rule="evenodd" transform="translate(50.51,57.2)"/>
            <path fill="#c0c1bb" id="shape44" d="M4.6,.1L15.8,0L14.3,17.1L0,17.1L4.6,.1z" fill-rule="evenodd" transform="translate(38.4,45.84)"/>
            <path fill="#ffffff" id="shape45" d="M11.5,0L0,6.2L10,22.3C10,22.3,21.5,15.4,21.5,15.3C21.6,15.2,11.5,0,11.5,0z" fill-rule="evenodd" transform="translate(51.66,57.88)"/>
            <path fill="#ffffff" id="shape46" d="M4.2,.1L14.8,0L13.2,16L0,16L4.2,.1z" fill-rule="evenodd" transform="translate(38.93,46.31)"/>
            <path fill="#e3be99" id="shape47" d="M.6,.5C.6,.5,2,-0.1,3.1,0C3.4,.4,5.2,2.5,5.3,2.9C5.5,3.3,5.4,4,5.3,4.1C5.3,4.3,5.6,5.2,5.7,5.6C5.8,6,5.3,8.4,4.9,9.6C5,9.6,3.5,8.9,2.1,9.7C1.7,9.7,1,7.3,.9,6.5C.8,5.6,.5,5.4,.5,4.8C.5,4.2,0,3.7,0,3.5C0,3.4,.2,2.9,.2,2.9L.6,.5z" fill-rule="evenodd" transform="translate(38.52,51.19)"/>
            <path fill="#deb387" id="shape48" d="M-0,.2C-0,.2,1.3,1.8,1.6,2.3C2,2.9,1.9,3.4,1.9,3.9C1.9,4.4,1.5,5.6,1.5,6.1C1.5,6.5,1.2,7,1.2,7C1.2,7,1.6,7.2,1.6,5.6C1.7,5,2.1,4.1,2.1,4.1C2.3,3.1,2,2.5,1.7,2.1C1.1,1.4,.2,0,.2,0L-0,.2z" fill-rule="evenodd" transform="translate(41.78,51.23)"/>
            <path fill="#deb387" id="shape49" d="M.7,.1C1.2,.3,1.2,.4,1.5,.8C1.7,1.1,1.8,1.4,1.9,1.9C2,2.3,2.4,2.8,2.6,3.2C2.7,3.4,2.6,3.5,2.9,4C3.2,4.5,4,4.1,4,4.1C4,4.1,3.2,4.8,2.8,4.1C2.8,4.1,1.8,2.3,1.5,1.4C1.4,1.1,1.4,.8,.8,.4C.3,-0.1,0,.1,0,.1C0,.1,.2,-0.1,.7,.1z" fill-rule="evenodd" transform="translate(38.97,54.07)"/>
            <path fill="#ffffff" id="shape50" d="M.4,2.8C.4,2.8,1.2,2.2,2.1,2.1C3.2,2,3.9,2.2,3.9,2.2L3.9,.1C3.9,.1,2.9,-0.1,1.9,0C.9,.1,-0,.3,-0,.3L.4,2.8z" fill-rule="evenodd" transform="translate(38.5,49.1)"/>
            <path fill="#292d34" id="shape51" d="M5.3,18.9C7.4,20.8,11.2,23.3,12.3,23C13.5,22.7,13,20.1,12.6,19.5C12.3,18.8,10.8,17.6,9.9,17.4C9,17.1,6.6,13.7,6.5,12.6C6.3,11.5,5.9,11.6,5.7,11.3C5.5,8.8,6.5,3,6.5,3L7.3,3.1C7.3,3.1,7.6,4.7,8,5.2C8.4,5.7,9,5.8,9,5.8C9,5.8,7,7.7,6.5,8.8C5.9,10,6.8,12,6.8,12L10.2,10L17.7,4.4C17.7,4.4,19.3,4.1,20,3.3C20.8,2.6,19.3,1.6,19.3,1.6C19.3,1.6,21.2,1.1,22.1,0C23.2,.5,24.6,4.2,24.8,5.2C25.1,6.2,25.3,7.6,25.3,9.5C25.3,11.5,24.7,12.9,24.8,14C24.9,15.1,25.7,21.1,25.5,22.8C25.2,24.6,22.7,26.9,21.8,27.4C20.9,28,19.4,27.8,19,28.2C18.5,28.7,18.8,28.1,14.1,31.3C13.6,31.5,12.3,31.4,11.3,31C10.3,30.5,0,22.5,0,22.5C0,22.5,2.8,18.3,5.3,18.9z" fill-rule="evenodd" transform="translate(58.66,46.22)"/>
            <path fill="#f6dcc3" id="shape52" d="M5.7,0C5.7,0,4.7,1.5,4.3,1.7C3.9,1.9,3.4,1.5,2.7,1.5C2,1.6,.5,2.5,.3,2.7C.2,3,0,4.7,0,4.7C0,4.7,.2,5.8,1.1,7.3C1.4,7.5,1.8,7.5,2,6.9C2,6.6,2.6,5.1,2.6,5.1L3.5,4.7C3.5,4.7,4.7,5,5.2,4.9C5.8,4.7,7.2,2.9,7.7,1.5C6.9,0,5.7,0,5.7,0z" fill-rule="evenodd" transform="translate(50.61,50.56)"/>
            <path fill="#f6dcc3" id="shape53" d="M7.8,6.7C7.8,6.7,7.4,4.6,6.9,3.8C6.5,3,4.9,1.7,4.6,1.7C4.4,1.7,4.3,2,4.3,2L3.1,1C3.1,1,2.3,0,2,0C1.3,0,1.2,.6,1.2,.6C1.2,.6,.8,.7,.6,.8C.3,.9,.4,1.6,.4,1.6L0,2.1C0,2.1,.1,3.3,.2,3.5C.4,3.7,.7,4.1,.7,4.1C.7,4.1,.6,4,.4,4.3C.2,4.7,.6,5.2,.6,5.2C.6,5.2,1.7,6.1,2.3,6.6C2.9,7.1,4.1,8.6,5.1,9.4C5.8,7.7,7.8,6.7,7.8,6.7z" fill-rule="evenodd" transform="translate(53.41,57.58)"/>
            <path fill="#1b2027" id="shape54" d="M0,10.4C0,10.4,2.8,10.6,4,13.4C4.6,13,5.9,11.3,6.4,10.7C6.9,10.2,9.6,8.3,9.6,8.3L10.5,6.7C10.5,6.7,10.1,5.8,10,5.5C10,5.1,10,4.4,10,4.4C10,4.4,9.5,3.6,9.6,3C9.8,2.5,10.7,0,10.7,0L0,10.4z" fill-rule="evenodd" transform="translate(55.02,39.92)"/>
            <path fill="#e6e9e6" id="shape55" d="M.8,4.7L0,3.9C0,3.9,.8,1.4,4.1,0C4.5,.5,5.3,1.2,5.2,1.2C3.2,1.4,.8,4.7,.8,4.7z" fill-rule="evenodd" transform="translate(58,63.79)"/>
            <path fill="#121e28" id="shape56" d="M.1,0C.1,0,-0.2,.5,.3,.8C.9,1.2,2.6,2.6,4.2,3.4C4.2,3.4,5,3.3,4.6,2.8C4.6,2.8,3.7,1,1.9,.4L.1,0z" fill-rule="evenodd" transform="translate(51.48,38.09)"/>
            <path fill="#253c53" id="shape57" d="M10.5,0C10.4,1.1,11.3,3.9,11.4,4.4C11.5,4.8,14.3,8.1,14.8,8.3C15.3,8.5,17,8.5,17.3,8.3C17.6,8.1,20.7,4.7,20.7,4.4C20.7,4.1,20.8,2.7,20.8,2.7C20.8,2.7,22,2.6,22.2,1.6C22.4,1.1,22,1.1,22.2,.4C22.4,-0.3,27.7,1.7,28.1,2.2C29.8,4.2,28.2,8.7,28.2,8.7C28.2,8.7,28.5,12.7,28.3,15C28.3,16.5,24.5,27.5,20,30.3C17.9,28,15.3,27.3,15.3,27.3L18.7,22.2L7.9,23.7L7.8,22.8C7.8,22.8,7.1,35.5,6.6,38.2C5.5,38.1,3.5,38,2,38.6C1.2,36.1,1.3,25.5,.3,24.8C-0.8,24,1.2,19,1.2,19C.6,18.4,.7,7.5,1.5,5.7C2.1,4.2,10.5,-0.2,10.5,0z" fill-rule="evenodd" transform="translate(36.21,10.94)"/>
            <path fill="#1b293b" id="shape58" d="M2.1,0C2.1,0,1,.3,.4,1.8C-0.1,3.3,.3,5.1,.3,5.1L1.7,5.4L0,7.1C0,7.1,1.7,9.5,3.3,12.2C4.9,14.9,8.4,20.7,8.4,20.7C8.4,20.7,6,15.5,3.9,11.6C2.6,9.1,1.1,7.2,1.1,7.1C1.1,6.9,2.2,5.4,2.2,5.4L2.1,0z" fill-rule="evenodd" transform="translate(44.48,11.03)"/>
            <path fill="#1c2a3d" id="shape59" d="M6.5,0C6.5,0,5.5,-0.7,3.6,6.5C3.6,6.5,.2,18.4,0,19.2L0,19.8C0,19.8,2.7,13.5,5.3,9.8C7.9,6.2,8.2,5.7,8.2,5.7L6.6,4.6L7.6,4.2C7.6,4.2,7.7,1.4,6.9,.1L6.5,0z" fill-rule="evenodd" transform="translate(52.79,11.23)"/>
            <path fill="#ffffff" id="shape60" d="M0,0L4.4,13.7L8.4,.5L7.9,.1L0,0z" fill-rule="evenodd" stroke="#000000" transform="translate(48.25,16.43)"/>
            <path fill="#a0a0a0" id="shape61" d="M.2,.2L-0,.9L.5,1.7C.5,1.7,1.7,1.7,1.7,1.8C1.7,1.9,2.1,.8,2.1,.8L1.7,0L.2,.2z" fill-rule="evenodd" transform="translate(51.63,19.37)"/>
            <path fill="#c0c0c0" id="shape62" d="M.9,.1L0,2.3L1.4,8.7L1.7,8.5L3.2,2.5L2.2,0L.9,.1z" fill-rule="evenodd" transform="translate(51.18,20.97)"/>
            <path fill="#3b4f64" id="shape63" d="M1.7,0C1.7,0,2.7,4.6,6.2,12.2C6.2,12.2,7.9,17,7.9,20.8C7.9,20.8,5.6,15.4,3.2,11.6C.7,7.7,.2,6.9,.2,6.9L1.7,5.4L.2,5.1C.2,5.1,-0.8,1.2,1.7,0z" fill-rule="evenodd" transform="translate(44.95,10.99)"/>
            <path fill="#3b4f64" id="shape64" d="M6.2,0C6.2,0,5,-0.7,3.1,6.5C3.1,6.5,.2,17.6,0,18.4L.1,19.3C.1,19.3,2.1,13,4.8,9.5C7.6,5.9,7.7,5.7,7.7,5.7L6.1,4.6L7.4,4.2C7.4,4.2,7.4,1.3,6.6,.1L6.2,0z" fill-rule="evenodd" transform="translate(52.68,11.14)"/>
            <path fill="#f6dcc3" id="shape65" d="M0,2.9C0,5.1,.2,6.2,1,8.2C1.1,8.7,2.6,11.2,4.3,12.2C5.3,12.8,6.2,12.5,6.9,12.1C9.2,10.7,10.2,8.5,10.2,8.2C10.4,7.1,10.3,6.5,10.3,6.5C10.3,6.5,11.1,6.9,11.6,6C12.1,4.9,13.2,3.6,12.5,1.7C12.4,1.4,11.9,1.5,11.4,1.6C10.7,1.8,10.3,2.8,10.3,2.8C10.3,2.8,9.4,1.6,8.2,1.4C8,1.3,4.3,1.6,4,1.5C3.7,1.4,1.8,-0,1.4,0C.4,.1,0,2.3,0,2.9z" fill-rule="evenodd" transform="translate(46.64,7.1)"/>
            <path fill="#231409" id="shape66" d="M.6,3C2,1.2,4.7,-0.3,6.8,0C9,.4,12.3,.7,12.8,3.5C13.2,6.3,12.8,8.6,12.8,8.6C12.8,8.6,12.3,8.5,11.7,8.8C11.1,9.1,10.8,10.1,10.8,10.1C10.8,10.1,10.8,9.5,8.7,8.5C8.4,8.3,6.2,9.4,4.2,8.7C2.5,8.1,3,7.3,1.7,7.3C.9,7.4,.5,10,.5,10C.6,10,-0.8,4.8,.6,3z" fill-rule="evenodd" transform="translate(46.13,-0.01)"/>
            <path fill="#192a3b" id="shape67" d="M1.2,0C1.2,0,4.1,2.8,4.4,5.2C4.7,7.6,4.2,8,4.5,9.2C5,11,4.2,12.7,3.3,13.3C2.4,13.9,2.2,14.1,1,14.1C.2,14.1,.4,14.6,1.9,14.8C4.4,15.2,4.2,14.9,4.4,15.2C4.5,15.5,4.4,15.9,4.2,16.1C3.6,16.6,1.9,16.3,.8,15.5C.3,15.2,-1.6,15.7,3.1,17.2C3.1,17.2,4.1,17.2,4.1,17.7C4.1,18.2,3.9,18.6,3.4,18.6C1.6,18.5,3.9,19.9,3.4,20.8C2.9,21.7,2.7,22.8,2.8,23.8C2.9,24.7,3.1,25.4,2.7,26.9C2.4,28.5,2.9,29.2,2.9,29.8C2.9,30.4,2.3,31.3,2.3,31.3C2.3,31.3,3.5,31.1,3.9,31.4C4.4,31.7,4.2,30.8,4.3,30C4.4,29.2,5.5,16.9,5.4,15C5.3,13.1,5.8,12.4,6.2,8.7C6.7,5.1,3.3,.7,1.2,0z" fill-rule="evenodd" transform="translate(38.75,17.81)"/>
            <path fill="#1b2c3d" id="shape68" d="M8.7,0C8.7,0,6.5,4,6.6,8.7C6.6,8.7,6.4,9.6,6.3,9.9C5.9,10.7,6.5,11.3,5.7,11.6C5.7,11.6,4.2,13.5,3.9,13.9C3.6,14.3,1.3,18.4,.2,20C.2,20,-0.4,20.6,.6,20.7C.6,20.7,1.4,20.9,2.7,21.6C2.7,21.6,3.2,21.2,2.6,20.5C2.6,20.5,2,19.6,2.9,19.1C2.9,19.1,3.2,19.3,3.4,17.6C3.5,15.8,5.7,14.5,6.1,13.4C6.5,12.3,6.2,12.2,6.7,11.7C6.7,11.7,7.7,11.1,7.1,10.8C6.4,10.6,6.7,10.4,6.7,10.4C6.7,10.4,8.5,10.6,8.2,10C8,9.4,7.7,9.8,7.4,9.8C7,9.8,6.8,9.7,6.8,9.7C6.8,9.7,6.7,9.3,7.4,9.3C8,9.3,9.1,8.6,9,8.1C8.8,7.6,8.6,8.3,8.1,8.4C7.7,8.4,7.2,8.3,7.2,8.1C7.2,7.9,7.4,7.4,8,6.8C8.5,6.2,8,5.5,8.1,4.8C8.1,4.2,8.2,1.1,8.7,0z" fill-rule="evenodd" transform="translate(51.53,17.77)"/>
            <path fill="#a0a0a0" id="shape69" d="M.1,-0C.1,-0,-0.1,.2,0,.4C.1,.7,2.7,2.7,3.1,2.7C3.5,2.6,3.3,2.5,3.3,2.4C3.3,2.3,1.9,.3,.1,-0z" fill-rule="evenodd" transform="translate(51.45,39.32)"/>
            <path fill="#e3be99" id="shape70" d="M7,1.4C6.7,2.1,5.7,4.4,5.7,4.4C5.7,4.4,4,6.4,3.4,6.5C2.9,6.5,1.9,6,1.9,6L.3,6.2C.3,6.2,-0.2,5.9,.1,5.5C.3,5.3,3,3.4,3,3.4C3,3.4,2.1,3.6,2.2,3.1C2.2,2.5,2.6,1.8,2.6,1.8C2.6,1.8,3.1,.9,3.4,.6C3.7,.3,5.1,0,5.1,0C5.1,0,6.3,.1,7,1.4z" fill-rule="evenodd" transform="translate(47.15,39.37)"/>
            <path fill="#ffffff" id="shape71" d="M4.3,2.4C4.2,2.6,4,3.1,3.4,3.4C1.8,1.3,0,.9,0,.9L.7,0C.7,0,2.5,.6,4.3,2.4z" fill-rule="evenodd" transform="translate(51.44,38.47)"/>
            <path fill="#f6dcc3" id="shape72" d="M1.6,0C1.6,0,.4,1.9,.2,4C.1,4.4,.6,5.3,.6,5.3C.6,5.3,.6,5.9,.6,6.3C.7,6.7,1.1,7.5,1.1,7.5L.2,8.8C.2,8.8,-0.2,9.2,.2,9.9C.3,10.1,1.6,10.2,1.6,10.2C1.6,10.2,1.8,11.9,2.3,12.4C2.7,12.8,4,13.3,4,13.3C4,13.3,3.8,13.2,3.2,13C3.4,13.9,4.3,17.2,4.4,17.2C4.5,17.2,11.4,12,12,11.6C12.5,11.4,13.5,11.2,14.3,10.5C15,9.8,13.5,8.8,13.5,8.8L10.5,9.8L10.1,11.6L9.3,9.8C9.3,9.8,8,9.4,7.4,9.2C6.8,8.9,2.8,4.4,2.6,3.6C2.4,2.8,2.6,2,2.6,2L2,1.3L1.6,0z" fill-rule="evenodd" transform="translate(64.41,39.05)"/>
            <path fill="#401d07" id="shape73" d="M1.1,7.6L.3,6.8C.3,6.8,-0.2,5.1,.1,4.7C.4,4.3,5.7,.3,7.5,0C9.4,-0.3,13.2,1.9,13.2,1.9C13.2,1.9,15.4,1.9,16.5,2.5C17.6,3.1,17.9,4,18.1,4.9C18.3,5.8,17.6,7,17.2,7.4C16.9,10.6,15.2,12.8,14.4,13.5C13.6,14.2,8.9,15.4,8.9,15.4L8.5,17.2L7.7,15.4C7.7,15.4,6.6,15.1,5.9,14.8C5.2,14.5,1.2,9.9,1.1,9.2C.9,8.5,1.1,7.6,1.1,7.6z" fill-rule="evenodd" transform="translate(65.95,33.42)"/>
            <path fill="#3d4147" id="shape74" d="M14.4,0C14.4,0,15.9,2.1,13.6,3.4C11.3,4.7,10.9,5.6,10.7,6.2C10.5,6.7,10.5,7.1,10.5,7.1L8.8,6.8L8.8,8.9C8.8,8.9,1.4,10.5,.3,11.9L0,11.2C0,11.2,3.9,9,5.9,7.3C8,5.6,11,3.7,11.3,3.4C11.3,3.4,14.4,2.6,13.7,1.3L13.1,.6L14.4,0z" fill-rule="evenodd" transform="translate(65.05,47.29)"/>
            <path fill="#3d4147" id="shape75" d="M3.3,1.4C3.3,1.4,.9,3.7,.6,4.7C.4,5.8,1.1,7.5,1.1,7.5L.7,7.9C.7,7.9,0,7,0,6.7C0,6.4,-0.2,4.3,.6,3C1.3,1.7,1.9,0,1.9,0C1.9,0,2.2,1.2,3.3,1.4z" fill-rule="evenodd" transform="translate(64.36,50.6)"/>
            <path fill="#13171c" id="shape76" d="M7.9,13.9C7.9,13.9,8.9,20.9,8.3,21.9C7.7,22.8,7.1,25.6,4.9,27.3C4.9,27.3,.9,29.2,0,29.4C0,29.4,4.9,24.4,5.1,19.1C5.3,15.5,8.2,13,6,4.6C5.3,1.9,4.2,1.8,4.2,1.8C4.2,1.8,4.1,.8,3.9,.9C3.7,1.1,5.3,0,5.3,0C5.3,0,7.5,3,7.9,5.5C8.3,8,8.3,8.4,8.3,9.4C8.4,10.3,7.6,13.9,7.9,13.9z" fill-rule="evenodd" transform="translate(75.58,46.34)"/>
            <path fill="#14181d" id="shape77" d="M15.6,0C15.6,0,12.1,1,11.2,4.7C10.3,8.5,11.5,8.4,10.9,9.5C10.3,10.7,10,13.3,10,13.3C10,13.3,10.1,13.2,11.6,13.3C13.2,13.5,14,14.5,14,14.5C14,14.5,14.1,15.2,11.9,14C11.9,14,10.7,13.9,10.4,14C10,14.1,10.2,14.4,10.4,14.5C10.6,14.7,13.2,14.8,13.4,15.1C13.5,15.4,13,15.9,11.6,15.5C10.3,15.1,10.1,15.5,10.1,15.5C10.1,15.5,11.6,16,11.5,17.3C11.4,18.6,11,16.8,9.9,16.2C9.9,16.2,9.1,16.8,7.8,16.5C6.5,16.2,7,15.6,5.9,15.1C4.7,14.6,4.9,14.2,3.5,13.8C2,13.5,0,11.5,0,11.3C0,11.2,1.8,10.5,2.2,10.9C2.5,11.2,4.9,13.4,7,14.4C9.1,15.5,9.9,15.3,9.7,12.8C9.7,12.8,9.6,10,9.8,9.8C10,9.6,10.4,4.4,11.2,3.2C12,2.1,13.6,.2,15.6,0z" fill-rule="evenodd" transform="translate(61.91,54.23)"/>
            <path fill="#20242b" id="shape78" d="M0,2.2C0,2.2,.4,4.1,.4,4.5C.4,4.9,3.1,3.9,3.6,4.4C4.1,4.8,3.2,1.3,2.7,.3C2.3,-0.7,3.1,.9,0,2.2z" fill-rule="evenodd" transform="translate(77.37,49.44)"/>
            <path fill="#c8cfc8" id="shape79" d="M0,8.3L44.7,0L44.7,1.5L.1,9.6L0,8.3z" fill-rule="evenodd" transform="translate(36.87,100.63)"/>
            <path fill="#82b6d0" id="shape80" d="M30.7,27.3C30.7,27.3,36.7,22.6,37.1,20.9C40,10.9,39.2,.6,39.2,.6C39.2,.6,38.4,0,37.1,0C35.8,0,34.2,.8,34.2,.8L29.4,15C29.4,15,28.1,16,27.2,17.3C26.6,16.9,25.5,18.3,25,18.1C24.1,17.8,21.1,16.4,21.1,16.4C21.1,16.4,20.2,13.7,19.6,13C18.7,11.9,17.7,10.6,17.7,10.6C17.7,10.6,26,9.4,26.4,8.8C26.8,8.4,25.7,8.2,24.9,5.8C24.6,4.9,24.6,3.1,24.6,3.1L10.6,4.9C10.6,4.9,12.4,5.2,13.3,6.7C14.2,8.2,14.7,10.3,14.7,10.3C14.7,10.3,15.3,11.1,15.8,11.8C16.2,12.5,14.6,17.1,14.1,17.6C13.6,18.1,12.8,18.8,12.8,18.8C12.8,18.8,12.1,21.1,11.6,21.5C11.1,22,10.1,21.9,10.1,21.9C10.1,21.9,9.2,23.5,6.8,23.3C4.3,23.2,2.9,22.3,0,20.3C1.3,24.4,3.3,27.4,9.3,35.7C10.3,37.1,11.7,39.9,13.7,44.2C16.8,51.3,32.4,44,32.4,44L30.7,27.3z" fill-rule="evenodd" transform="translate(4.43,62.93)"/>
            <path fill="#f9fcfd" id="shape81" d="M0,3L.2,.8C.2,.8,1.7,.1,2.5,0C3.4,-0.1,4.6,.8,4.6,.8L4.1,3C4.1,3,2.9,2.5,2.2,2.5C1.6,2.5,0,3,0,3z" fill-rule="evenodd" transform="translate(39.53,60.45)"/>
            <path fill="#f9fcfd" id="shape82" d="M0,.4L1.4,0C1.4,0,1.2,1.1,1.7,2.3C2.2,3.3,3,4.5,3,4.5L1.4,5C1.4,5,.4,3.3,.1,2.5C-0.1,1.7,0,.4,0,.4z" fill-rule="evenodd" transform="translate(29.04,66.04)"/>
            <path fill="#e3be99" id="shape83" d="M0,3.2C0,3.2,2,.3,2.5,0C2.9,-0.2,6.1,1.2,6.4,1.4C6.6,1.6,7,3.4,7,3.4C7.1,3.5,6.2,5.1,6.2,5.1L5.4,5.2C5.4,5.2,4.1,6.1,3.7,6.5C3.3,6.9,1.1,5.9,1.1,5.9C1.1,5.9,.3,4.9,.2,4.4C0,3.9,0,3.2,0,3.2z" fill-rule="evenodd" transform="translate(30.33,63.39)"/>
            <path fill="#d9a775" id="shape84" d="M1.5,1C1.4,.9,1.7,.6,1.7,.6L1.5,.2L.6,-0L-0,.6L.1,1.2C.1,1.2,.4,.8,.7,.8C.9,.8,1.5,1,1.5,1z" fill-rule="evenodd" transform="translate(34.12,66.77)"/>
            <path fill="#6ba9c8" id="shape85" d="M5.3,0L0,5.9C0,5.9,2.4,7.7,3.1,9.4C4.5,12.7,6.4,13.2,6.4,13.2L5.6,3.8L5.3,0z" fill-rule="evenodd" transform="translate(29.94,90.21)"/>
            <path fill="#f9fcfd" id="shape86" d="M5,.1C5,.1,.7,-0.1,.4,.1C.2,.3,0,1.8,0,1.8L5,.1z" fill-rule="evenodd" transform="translate(19.84,78.18)"/>
            <path fill="#6ba9c8" id="shape87" d="M18.7,.7C18.7,.7,14.4,12.6,14.1,14.2C14.1,14.2,14.5,14.5,13.8,14.7C13.2,14.9,12,15.5,11.7,16.3C11.4,17.1,11.3,16.9,10.8,17.3C10.2,17.6,4.3,20.5,2,23.3C-0.3,26.1,0,27.1,0,27.1C0,27.1,2.5,21.5,10.4,18.9C15.2,17.4,13.6,17.2,13.6,16.8C13.6,16.3,16.1,16.5,16.2,17.9C16.4,19.2,18.1,17.3,15.2,15.6C15.2,15.6,14.7,14.7,15.5,15C16.3,15.2,16.9,15.5,17.3,16.1C17.7,16.7,18.3,15.3,17,14.6C15.7,13.9,17.2,13.2,17.7,12.8C18.1,12.4,17.6,10,18.3,7.7C19,5.4,19.5,4.9,19.4,3.9C19.2,3,20,.2,20.3,0C20.7,-0.2,18.6,.7,18.7,.7z" fill-rule="evenodd" transform="translate(20.03,63.26)"/>
            <path fill="#6ba9c8" id="shape88" d="M.9,4.1C.9,4.1,2,5.1,12.6,2.8C12.6,2.8,13.4,2.7,12.2,1.9C12.2,1.9,11.4,.8,11.2,.3C11,-0.1,9.3,-0.2,8.2,.5C7,1.3,6.6,2.1,5.3,1.7C3.9,1.3,3.2,1.9,1.9,1.9C.5,1.9,0,1.5,0,1.5L.9,4.1z" fill-rule="evenodd" transform="translate(18.23,69.14)"/>
            <path fill="#bdd9e6" id="shape89" d="M0,7.6C0,7.6,2.1,10.6,3.9,10.6C5.7,10.6,7.8,9,8.6,7.2L9,5.7L11.3,6.1C11.3,6.1,12.1,1.1,15.6,.2C15.6,.2,16.1,-0.7,11.1,1.1C11.1,1.1,8,3.8,7.4,4C7.4,4,7.1,6.2,5.2,6.2C5.2,6.2,4.5,8.8,0,7.6z" fill-rule="evenodd" transform="translate(9.55,78.64)"/>
            <path fill="#bdd9e6" id="shape90" d="M.6,3.5C.6,3.5,1,.8,0,-0C0,-0,3.2,1.9,4.7,3.8C4.7,3.8,2.9,2.9,.6,3.5z" fill-rule="evenodd" transform="translate(20.18,74.73)"/>
            <path fill="#f6dcc3" id="shape91" d="M4.6,1.9C5.1,2.7,6,5.4,6,5.4C6,5.4,6.6,6.2,7,6.9C8.9,10.2,6.5,12.6,5.9,13.2C5.4,13.9,3.7,14.9,3.7,14.9C3.7,14.9,3.6,15.7,3.2,16.4C2.7,17.1,1.4,17,1.4,17C1.4,17,0,16,0,15C0,14,3.3,11.7,3.3,11.7C3.3,11.7,2.8,11.7,3.5,8.6C2,10.5,2.3,6.9,2.3,6.9C2.3,6.9,5,2.4,1.8,0C3,.2,4,1,4.6,1.9z" fill-rule="evenodd" transform="translate(15.18,66.87)"/>
            <path fill="#130f09" id="shape92" d="M8.5,.7C6.1,1.6,2.3,4.4,1.2,6.6C-0,8.8,-0.8,14,1.3,15.9C4.5,18.8,8.6,21.3,11.1,20.7C13.6,20,15.2,18.1,15.2,18.1C15.2,18.1,13.9,17,13.9,16C13.9,15,17.2,14.1,17.2,14.1C17.2,14.1,19.5,10.4,17.9,9.6C16,9.4,16,7.9,16,7.9C16,7.9,18.9,3.9,15.7,1C14.2,-0.3,10.8,-0.3,8.5,.7z" fill-rule="evenodd" transform="translate(1.3,65.85)"/>
            <g id="group93" transform="translate(10.12,25.29)">
                <path fill="#252726" id="shape94" d="M0,.3C0,.3,.7,-0.1,1.3,0C2.2,.1,2.9,1,3.2,1.7C3.6,2.5,3.8,4.1,4.3,4.7C4.7,5.2,6.6,7.9,6.6,7.9C6.6,7.9,8.3,7.6,8.7,7.6C9.1,7.6,9.7,8,9.9,8.1C10.1,8.3,10.3,8.9,10.1,9.1C8.8,8.5,7,9.3,7,9.3C7,9.3,8,10.6,8.4,12.3C8.8,14.1,9.2,17.8,9.2,17.8C9.2,17.8,6.9,18.2,6.7,18.1C6.6,16.2,6.9,12.6,6.5,11.5C5.8,10.8,1.3,6.4,1.3,6.4C1.3,6.4,1.2,5.8,1.2,5.3C1.2,4.2,.8,3,.8,3L0,.3z" fill-rule="evenodd" transform="translate(11.83,6.95)"/>
                <path fill="#e7f1f6" id="shape95" d="M4.1,0C4.1,0,5.3,3.2,4.4,4.2C3.6,5.1,0,4.9,0,4.9L3.4,8.3C3.4,8.3,6.3,7.9,7.2,6.4C8.1,4.9,7.5,3.4,7.5,3.4L4.1,0z" fill-rule="evenodd" transform="translate(10.16,14.46)"/>
                <path fill="#f3d1af" id="shape96" d="M0,4.6L2.6,7.1C2.6,7.1,6.2,7.4,7,6.5C7.8,5.6,6.6,2.2,6.6,2.2L5.5,1C5.5,1,5.4,0,5.4,0C5.3,1.4,4,4,3.9,4.5C3.8,4.7,3.2,5.3,2.6,5.3C2,5.2,0,4.6,0,4.6z" fill-rule="evenodd" transform="translate(7.62,12.26)"/>
                <path fill="#f6dcc3" id="shape97" d="M4.6,5.1C4.6,5.1,3.9,4.9,3.6,4.9C3.2,4.9,2.2,4.2,1.5,3.6C1.4,2.8,0,.4,0,.4C0,.4,1.6,-0.4,3,.2C4.4,.8,5.1,.9,5.1,.9C5.1,.9,6.4,2.9,6.4,3.1C6.5,3.4,6,4.9,6,4.9C6,4.9,5.4,6,5.2,6C5,6,4.6,5.1,4.6,5.1z" fill-rule="evenodd" transform="translate(18.88,15.85)"/>
                <path fill="#e3be99" id="shape98" d="M1.3,2C1.3,2,1.3,1.6,1,1.3C.8,1,.2,.7,0,.5C-0.1,.3,.3,-0.1,.5,0C.8,.1,1.4,1.1,1.4,1.1L1.3,2z" fill-rule="evenodd" transform="translate(22.18,18.74)"/>
                <path fill="#f6dcc3" id="shape99" d="M0,4.1L.8,3.1L1.9,1.4L3.5,.6L4.7,.4C4.7,.4,5.9,0,5.9,0C6,0,7.2,1,7.2,1L7.2,2.3L6.2,4.4L2.8,5.7L2.5,6.3C2.5,6.3,.9,6.1,.4,5.6C-0.1,5.1,0,4.1,0,4.1z" fill-rule="evenodd" transform="translate(18.79,24.53)"/>
                <path fill="#e3be99" id="shape100" d="M0,1.7L2.1,1.2L2.7,.7L2.5,.2L1.7,0L1.2,.7L.6,.9L0,1.7z" fill-rule="evenodd" transform="translate(21.87,25.4)"/>
                <path fill="#4c5147" id="shape101" d="M.6,.3L3.2,0L3.2,1.1L2.8,1.2L.9,3.9L0,3.9L.6,.3z" fill-rule="evenodd" transform="translate(17.85,24.73)"/>
                <path fill="#4c5147" id="shape102" d="M0,10L4.1,9.5L5.1,8.1L4.3,0L4.1,.6L3.9,1.8L1.1,3.5L0,10z" fill-rule="evenodd" transform="translate(17.24,30.28)"/>
                <path fill="#a5874d" id="shape103" d="M3.4,10.8C3.4,10.4,5.9,9.6,8,6.7C9.3,7.4,9.9,6.7,10.2,6.9C11.2,7.2,12.5,8.7,12.5,8.7C12.5,8.7,10.6,3.6,9.7,2.6C8.8,1.7,7.7,1,6.1,1C5.3,.3,4.6,-0.3,2.9,.1C1.4,.8,1.2,2.1,1.2,3C.2,3.8,-0.1,6.2,0,7.2C0,11.1,2.6,13.4,2.6,13.4C2.6,13.4,3.6,13,3.6,12.3C3.6,11.6,3.4,11.4,3.4,10.8z" fill-rule="evenodd" transform="translate(0,0)"/>
                <path fill="#f6dcc3" id="shape104" d="M5.1,10.1C5.5,10.3,7.2,10.7,7.6,10.8C8,10.9,9,10.3,9,10C9.1,9.7,10.5,6.5,10.5,5.5C10.5,4.5,9.9,2,9.9,2C9.9,2,8.6,.5,7.7,.1C7.2,-0,6.7,.6,5.5,0C3.3,2.8,.9,3.6,.8,4C.8,4.6,1.1,4.8,1.1,5.5C1,6.3,0,6.6,0,6.6C0,6.6,.8,7,1.2,6.8C2.2,8.7,4.6,9.9,5.1,10.1z" fill-rule="evenodd" transform="translate(2.57,6.74)"/>
                <path fill="#d9e9f1" id="shape105" d="M0,4.9C0,4.9,.8,5.7,.8,6.8C.8,7.9,3,13.9,3,14C3,14.1,5.7,10.2,5.7,10.2C5.7,10.2,5.1,9.2,5,7.1C4.8,5.2,5.1,2,5.1,1.9C5,1.6,4.8,.4,4.1,0C4.1,0,4,2.9,0,4.9z" fill-rule="evenodd" transform="translate(13.61,17.86)"/>
                <path fill="#252726" id="shape106" d="M2.9,0C1.5,1.9,0,5.9,0,5.9C0,5.9,-0.1,8.9,1.7,11.8C3.6,14.9,3.8,17.4,4.2,19.3C4.4,20.6,4.1,25.5,4.4,26C4.7,26.5,7,27.5,9.6,27.5C12.2,27.5,16.3,27.5,16.4,26.8C16.6,26.1,17.5,20.4,17.5,20.4C17.5,20.4,19.6,19.4,20.3,18.6C21,17.8,20.6,17,20.6,17C20.6,17,19.4,16.8,18.9,16.3C18.4,15.8,18.2,14.9,18.2,14.9L16.9,14.6L16,12.4L6.8,3.3C6.8,3.3,4,2.1,2.9,0z" fill-rule="evenodd" transform="translate(0.82,13.53)"/>
                <path fill="#191b1a" id="shape107" d="M3.1,0C3.1,0,.5,-0.1,.1,2.4C-0.3,4.9,.7,7.5,2.4,8.8C4.1,10.1,6.9,15.1,8.2,16.4C9.4,17.7,11.2,16.3,12.1,16.3C14.6,16.4,16.4,15.8,16.4,15.8C16.4,15.8,20.1,14.8,19.6,12.4C19.6,12.4,18.9,12.4,18.5,12.2C18.1,11.9,18,13.1,17,13.6C16.1,14.1,14.1,14,13.1,14.1C12.1,14.3,12.2,12.3,12.6,12C13,11.7,11.3,12.3,11.5,13.8C11.7,15.3,10.6,12.7,11.3,11.8C12,10.9,10,12.5,10.2,13.3C10.4,14.1,10.5,12.7,9.4,12.3C8.3,11.8,8.3,10.2,7.2,9.6C6.2,9,5.1,9.1,4.2,7.8C3.2,6.5,.4,3.6,1,2.7C1.6,1.8,.4,1.1,3.1,0z" fill-rule="evenodd" transform="translate(1.97,18.11)"/>
                <path fill="#424443" id="shape108" d="M.5,0C.5,0,1.5,1.9,4.4,3.3C4.4,3.3,9.8,6.8,13.6,12.4C13.6,12.4,14.2,13.7,14.5,14.6L14,14.6C14,14.6,11.9,9.1,4.3,5.8L4.2,5L3,5.2C3,5.2,.3,3.1,0,.7L.5,0z" fill-rule="evenodd" transform="translate(3.27,13.53)"/>
                <path fill="#424443" id="shape109" d="M.6,1.6C.6,1.6,1.4,5,1,5.9C1,5.9,.9,5.9,1.6,6.6C1.6,6.6,5.5,10.4,6.3,11.4C6.3,11.4,6.8,12.7,6.5,15.1C6.5,15.1,6.3,16.8,6.6,17.8L7,17.8C7,17.8,6.9,15.8,7,15.1C7.1,14.4,7.1,11.6,6.7,11.2C6.3,10.8,2.8,6.7,2.3,5.7C1.8,4.7,2,3.8,2,3.8L1.4,3.6L1.7,3.2C1.7,3.2,1,.4,0,0L.6,1.6z" fill-rule="evenodd" transform="translate(11.96,7.16)"/>
                <path fill="#1b1e1d" id="shape110" d="M1.5,3.4C1.5,3.4,3.6,5.4,4,6C4.4,6.6,4.7,6,5.1,6C5.6,6,7.6,5.4,7.9,5.5C8.2,5.7,5.3,5,3.2,3.5C1.1,1.9,.8,.7,.1,.1C-0.5,-0.6,1.5,3.4,1.5,3.4z" fill-rule="evenodd" transform="translate(9.37,22.64)"/>
            </g>
            <path fill="#d4d2c8" id="shape111" d="M2.3,0L22,13.3L19.8,14L0,.6L2.3,0z" fill-rule="evenodd" transform="translate(0,86.39)"/>
            <path fill="#dad9d1" id="shape112" d="M0,.6L2.4,0L8,35.6L5.6,36.3L0,.6z" fill-rule="evenodd" transform="translate(19.78,99.72)"/>
            <path fill="#a19d88" id="shape113" d="M19.8,13.3L0,0L3.8,16.2L22.3,29.2L19.8,13.3z" fill-rule="evenodd" transform="translate(0,87.03)"/>
            <path fill="#d4d2c8" id="shape114" d="M0,0L1.3,.9L4.3,20.7L3.1,20L0,0z" fill-rule="evenodd" transform="translate(21,115.3)"/>
        </g>
        <g id="group115" transform="translate(738.58,580.39)">
            <path fill="#bcbcbc" id="shape116" d="M1.8,0L26.8,0C26.8,0,26.8,6.3,26.8,6.3C29.2,6.3,29,10.9,26.8,10.9C26.8,10.9,26.8,14,26.8,14C29,14,29,18.8,26.8,18.8C26.8,19.1,26.8,22,26.8,22C29.2,22,29,26.7,26.8,26.7C26.8,26.7,26.2,27.6,24.8,28.8C23.4,29.9,20.6,30.6,20.6,30.6C20.6,30.6,20.6,34.9,17.9,34.9C15.2,34.9,13.6,34.9,10.8,34.9C8.1,34.9,8,30.6,8,30.6C8,30.6,5,30.3,3.5,28.8C2.1,27.3,1.8,24.5,1.8,24.5C-0.6,24.5,-0.7,20.2,1.8,20.2C1.8,20.2,1.8,15.7,1.8,15.7C-0.5,15.7,-0.6,11.4,1.8,11.4C1.8,11.4,1.8,7.8,1.8,7.6C-0.5,7.6,-0.6,3.5,1.8,3.5C1.8,3.5,1.8,0,1.8,0z" fill-rule="evenodd" transform="translate(12.41,46.01)"/>
            <path fill="#ffbf28" id="shape117" d="M0,26.3C0,11.8,11.9,0,26.6,0C41.3,0,53.2,11.8,53.2,26.3C53.2,40.9,41.3,52.7,26.6,52.7C11.9,52.7,0,40.9,0,26.3z" fill-rule="evenodd" transform="translate(0,-0.01)"/>
            <path fill="#ffffff" id="shape118" d="M0,10.8C0,4.9,6.3,0,14.2,0C22,0,28.3,4.9,28.3,10.8C25.4,7.1,20,4.3,14.2,4.2C8.4,4.2,3.1,6.2,0,10.8z" fill-rule="evenodd" transform="translate(12.36,5.01)"/>
        </g>
        <path fill="#00188f" id="shape119" d="M0,83.2C0,35.8,0,36.7,0,36.7C8.7,36.7,17.9,36.7,17.9,36.7C17.9,58.8,17.9,83.2,17.9,83.2C9.2,83.2,0,83.2,0,83.2zM88.2,36.5L67.4,34.3C67.4,34.3,71.4,24.8,72.5,21.2C74.5,14.2,75.4,0,66.7,0C63.3,0,60.7,2.4,60.7,5.7C60.7,18.4,52.6,28.7,38,31.8C31.1,33.4,24.6,36.7,22.4,40.2C22.4,48.7,22.4,80.1,22.4,80.1C22.4,80.1,38,86,43.4,86.9C49.7,88,64.9,87.4,71.4,86.9C74.8,86.7,77,85.1,77,82.5C77.2,80.1,76.3,79.6,74.5,78.3C73.9,77.8,74.3,77,74.8,76.5C75.4,76.1,77,75.6,77.7,75.4C80.6,75,82.6,73,82.8,69.7C82.8,67.2,81.7,65.9,79.9,64.6C79.2,64.1,79.7,63,80.3,62.8C81,62.4,82.8,62.1,83.7,62.1C86.8,61.9,88.6,59.3,88.9,56C88.9,53.5,87.1,52,85.7,51.3C85,51.1,84.8,49.5,85.7,49.1C86.4,48.7,87.5,48.4,88.2,48.2C91.3,47.8,93.8,46,94,42.7C94,39.6,92,36.7,88.2,36.5z" fill-rule="evenodd" transform="translate(104.72,197.49)"/>
        <g id="group120" transform="translate(711.52,204.75)">
            <path fill="#eb6d71" id="shape121" d="M0,40.1C0,18,18,0,40.1,0C62.3,0,80.3,18,80.3,40.1C80.3,62.3,62.3,80.3,40.1,80.3C18,80.3,0,62.3,0,40.1z" fill-rule="evenodd" stroke="#eb6d71"/>
            <path fill="#ffffff" id="shape122" d="M1.3,0L67.7,0C68.4,0,69,.6,69,1.3L69,12.8C69,13.5,68.4,14.1,67.7,14.1L1.3,14.1C.6,14.1,0,13.5,0,12.8L0,1.3C0,.6,.6,0,1.3,0z" fill-rule="evenodd" transform="translate(5.63,33.08)"/>
        </g>
        <g id="group123" transform="translate(100.72,567.25)">
            <path fill="#0d0d0d" id="shape124" d="M0,6.7C0,6.7,0,5.3,.9,5.1C1.8,4.9,20.9,0,20.9,0L20.4,40C20.4,40,12.8,42.2,11,42C9.1,41.7,7.9,39.8,7.9,39.8L0,6.7z" fill-rule="evenodd" transform="translate(77.09,11.31)"/>
            <path fill="#f7d8aa" id="shape125" d="M42.7,8.5C41,8.4,38.7,8.1,37.7,7.8C36.8,7.6,29,4.2,25.7,2.1C24.2,.7,19.6,-0.3,18.4,.1C17.1,.5,10.1,2.1,9.2,2.1C8.2,2.1,2.5,10,.7,11.7C-1.2,13.5,.8,16.8,6.3,16.1C11.8,15.4,14.7,11,14.7,11C14.7,11,19.7,11.4,20.7,10.5C21.6,16.2,31.1,25.2,39.6,22.5C37.7,23.5,36.1,23.1,36.1,23.1C36.1,23.1,45.6,32.1,45.1,36.4C47,35.7,48.4,33.2,48.4,33.2C48.4,33.2,46.1,15.3,42.7,8.5z" fill-rule="evenodd" stroke="#d0855b" transform="translate(34.06,12.24)"/>
            <path fill="#262626" id="shape126" d="M0,0C.6,.6,24.3,13.5,24.3,13.5L4.9,52.2L.3,51L0,0z" fill-rule="evenodd" transform="translate(0,-0)"/>
            <path fill="#c2b5d3" id="shape127" d="M15.8,0L20.7,2.2C20.7,2.2,21.6,2.5,20.5,4.2C19.5,6,8.2,30.3,7,31.5C5.8,32.7,3.8,32.7,3.8,32.7L0,31.1L15.8,0z" fill-rule="evenodd" transform="translate(7.88,14.79)"/>
            <path fill="#f8edd0" id="shape128" d="M42.5,8.5C40.8,8.4,38.5,8.1,37.5,7.8C36.6,7.6,28.8,4.2,25.5,2.1C24,.7,19.4,-0.3,18.2,.1C16.9,.5,9.9,2.1,9,2.1C8,2.1,2.3,10,.5,11.7C-1.4,13.5,2.6,13,4,11.8C6,10,10.6,4.9,10.6,4.9C10.6,4.9,19.8,2.6,21.2,3C23.7,3.3,34.2,10.7,36.7,10.3C39.4,11.4,43.1,10.8,43.1,10.8C43.1,10.8,42.9,9.6,42.5,8.5z" fill-rule="evenodd" transform="translate(34.27,12.24)"/>
            <path fill="#eac195" id="shape129" d="M45.3,10.4C42,13.5,27.8,12.7,21.6,0C20.1,.7,15,.8,13.6,.2C12.4,4.6,1.5,6,.7,2.9C-1.2,4.6,.8,7.9,6.3,7.2C11.8,6.6,14.7,2.1,14.7,2.1C14.7,2.1,19.7,2.6,20.7,1.7C21.6,7.3,31.1,16.4,39.6,13.7C37.7,14.6,36.1,14.3,36.1,14.3C36.1,14.3,45.6,23.3,45.1,27.5C47,26.8,48.4,24.4,48.4,24.4C48.4,24.4,46.3,15.5,45.3,10.4z" fill-rule="evenodd" transform="translate(34.06,21.09)"/>
            <path fill="#f0d1bf" id="shape130" d="M50.8,46.1C50.7,48.5,48.6,50.1,44.6,49.3C44.4,52.4,42.4,53.1,38.7,53C37.8,52.6,2.8,32.4,0,28.7C.5,27.1,12.8,3.3,11.6,3.7C11.2,3.9,14.3,4.1,15.4,3.7C19.8,1.9,27,0,26.4,0C25.4,0,19.7,7.9,17.9,9.7C16.1,11.4,18,14.7,23.5,14C29,13.3,31.9,8.9,31.9,8.9C31.9,8.9,36.9,9.3,38,8.4C38.8,14.1,48.3,23.1,56.8,20.4C55,21.4,53.4,21.1,53.4,21.1C53.4,21.1,62.8,30,62.5,34.3C62.2,39.8,57.9,40.5,57.9,40.5C57.9,40.5,58.3,47.2,50.8,46.1z" fill-rule="evenodd" stroke="#d0855b" transform="translate(16.84,14.33)"/>
            <path fill="#e5b69a" id="shape131" d="M50.8,25.1C50.7,27.5,48.6,29.1,44.6,28.3C44.4,31.3,42.4,32,38.7,32C37.8,31.6,2.8,11.4,0,7.7C.1,7.3,.7,6.1,1.6,4.3C3.6,6.8,10,16.1,20.4,12.2C23,11.3,22.4,17,27.4,15C29,14.3,30.9,20.6,33.1,18.3C36.6,21.7,42.8,17.8,38.1,12.2C44.5,14.8,49.3,10.9,46.2,6.1C53.2,8,53.4,0,53.4,0C53.4,0,62.8,9,62.5,13.2C62.2,18.7,57.9,19.4,57.9,19.4C57.9,19.4,58.3,26.1,50.8,25.1z" fill-rule="evenodd" transform="translate(16.84,35.36)"/>
            <path fill="#d5a87f" id="shape132" fill-opacity="0.8" d="M35.2,14.9C30.1,14.2,21.9,10.5,19.3,3.1C18,3.3,15.7,3.3,14.5,3.1C13.7,5.1,10.5,6.1,6,6.6C4.5,6.7,.8,5.9,0,4.4C1,5.3,2.8,5.9,5.5,5.6C11,4.9,13.9,.4,13.9,.4C13.9,.4,18.9,.9,19.9,0C20.8,5.7,30.2,14.7,38.7,12C36.9,13,35.3,12.6,35.3,12.6C35.3,12.6,44.8,21.6,44.4,25.8C44,24.6,42.8,23.4,42.8,23.4C42.8,23.4,38.9,18.7,35.2,14.9z" fill-rule="evenodd" transform="translate(34.89,22.77)"/>
            <path fill="#cc8559" id="shape133" d="M18.9,25.1C18.8,27.5,16.6,29.1,12.6,28.3C12.4,31.3,10.4,32,6.8,32C6.5,31.9,3.8,30.4,0,28.1C3.3,29,6,30.9,7.3,31C8.8,31.2,11.5,29.6,10.5,27.3C9.5,25.2,6.3,22.6,4.1,20.1C6.2,21.5,11.2,26.9,12.8,27.2C14.8,27.9,18.5,26.2,17.6,23.9C16.5,20.6,13.1,18.4,10.6,15.4C13.4,17.1,17.8,22,19.7,22.6C22,23.4,24.7,21.3,24.4,19.2C24.1,16.6,20.1,12.5,17.3,9.1C20,10.8,24,16.3,25.5,16.7C27.3,17.2,29.9,14.1,29,11.7C27.5,6.9,21.4,0,21.4,0C21.4,0,30.9,9,30.5,13.2C30.2,18.7,25.9,19.4,25.9,19.4C25.9,19.4,26.3,26.1,18.9,25.1z" fill-rule="evenodd" transform="translate(48.82,35.36)"/>
            <path fill="#fee6dc" id="shape134" d="M0,6.1C.7,4.6,1,3.7,.7,3.7C.3,3.9,3.5,4.1,4.5,3.7C9,1.9,16.2,0,15.5,0C15,0,12.9,2.5,10.9,5.1C6.1,6.7,2.1,7.2,0,6.1z" fill-rule="evenodd" transform="translate(27.68,14.33)"/>
            <path fill="#ffffff" id="shape135" d="M0,5.3C0,5.3,.8,4.6,4.5,0C5.8,.6,7,1.8,6.7,2.3C4.4,4,3.1,5,1.7,5.5C.6,5.8,0,5.3,0,5.3z" fill-rule="evenodd" stroke="#d3a67d" transform="translate(34.74,18.7)"/>
            <path fill="none" id="shape136" d="M50.8,46.1C50.7,48.5,48.6,50.1,44.6,49.3C44.4,52.4,42.4,53.1,38.7,53C37.8,52.6,2.8,32.4,0,28.7C.5,27.1,12.8,3.3,11.6,3.7C11.2,3.9,14.3,4.1,15.4,3.7C19.8,1.9,27,0,26.4,0C25.4,0,19.7,7.9,17.9,9.7C16.1,11.4,18,14.7,23.5,14C29,13.3,31.9,8.9,31.9,8.9C31.9,8.9,36.9,9.3,38,8.4C38.8,14.1,48.3,23.1,56.8,20.4C55,21.4,53.4,21.1,53.4,21.1C53.4,21.1,62.8,30,62.5,34.3C62.2,39.8,57.9,40.5,57.9,40.5C57.9,40.5,58.3,47.2,50.8,46.1z" stroke="#c88459" transform="translate(16.84,14.33)"/>
            <path fill="#f7d8aa" id="shape137" d="M9,11.9C9,11.9,9.1,13.4,7.3,14.4C5.5,15.5,1.2,14.5,.2,12.4C-0.8,10.3,1.9,3.9,3.5,1.4C5.2,-1.1,8.7,0,9,3C9.4,6.1,7.9,10.7,7.9,10.7L9,11.9z" fill-rule="evenodd" stroke="#d0855b" transform="translate(41.89,53.14)"/>
            <path fill="#f7d8aa" id="shape138" d="M7.5,15.2C6.6,13.2,9.2,6.7,10.9,4.2C10.8,.1,6.8,-1.3,5,1.2C2.1,5.3,.1,9.3,0,11.3C-0.2,14.6,6,17.7,7.5,15.2z" fill-rule="evenodd" stroke="#d0855b" transform="translate(34.56,50.33)"/>
            <path fill="#f7d8aa" id="shape139" d="M5.1,10.7C5.9,9.3,7.3,6.4,9.1,3.8C9.3,-0,5.4,-1,4,1C2.8,2.6,.9,4.8,.1,7C-0.7,9.4,4,12.4,5.1,10.7z" fill-rule="evenodd" stroke="#d0855b" transform="translate(23.78,45.53)"/>
            <path fill="#f7d8aa" id="shape140" d="M.2,9.7C1.8,6.3,2.3,5.6,4.7,1.7C7.1,-2.2,12.3,1.1,10.3,5.6C8.2,8.6,6.6,12.2,6.5,13.9C6.3,17.4,-1.4,13.1,.2,9.7z" fill-rule="evenodd" stroke="#d0855b" transform="translate(28.08,47.76)"/>
            <path fill="#f8edd0" id="shape141" d="M0,5.1C-0.4,6.5,3.5,7.2,3.8,6.5C4.3,5.3,4.6,2,4.3,1.1C4,-0.1,2.1,-0.4,1.7,.6C1.2,1.8,.2,4.3,0,5.1z" fill-rule="evenodd" stroke="#d3a67d" transform="translate(44.76,53.71)"/>
            <path fill="#f8edd0" id="shape142" d="M.1,4.2C-0.7,5.6,4.1,7.1,4.4,6.4C4.9,5.2,6.1,2.5,5.8,1.6C5.4,.4,3,-0.5,2.4,.3C1.6,1.4,.5,3.5,.1,4.2z" fill-rule="evenodd" stroke="#d3a67d" transform="translate(38.03,51.48)"/>
            <path fill="#f8edd0" id="shape143" d="M.1,4.3C-0.7,5.6,4.1,7.2,4.4,6.5C4.9,5.2,6.4,2.5,6.1,1.6C5.7,.4,3.3,-0.5,2.7,.3C1.9,1.4,.5,3.5,.1,4.3z" fill-rule="evenodd" stroke="#d3a67d" transform="translate(31.41,48.61)"/>
            <path fill="#f8edd0" id="shape144" d="M.1,3.4C-0.6,4.7,3.5,6.5,3.9,5.9C4.8,4.6,5.7,3.2,5.5,1.8C5.4,.6,3.3,-0.8,2.2,.5C1.4,1.5,.5,2.7,.1,3.4z" fill-rule="evenodd" stroke="#d3a67d" transform="translate(26.35,46.22)"/>
            <path fill="none" id="shape145" d="M42.7,8.5C41,8.4,38.7,8.1,37.7,7.8C36.8,7.6,29,4.2,25.7,2.1C24.2,.7,19.6,-0.3,18.4,.1C17.1,.5,10.1,2.1,9.2,2.1C8.2,2.1,2.5,10,.7,11.7C-1.2,13.5,.8,16.8,6.3,16.1C11.8,15.4,14.7,11,14.7,11C14.7,11,19.7,11.4,20.7,10.5C21.6,16.2,31.1,25.2,39.6,22.5C37.7,23.5,36.1,23.1,36.1,23.1C36.1,23.1,45.6,32.1,45.1,36.4C47,35.7,48.4,33.2,48.4,33.2C48.4,33.2,46.1,15.3,42.7,8.5z" stroke="#c88459" transform="translate(34.06,12.24)"/>
            <path fill="#c1d2e8" id="shape146" d="M0,2.8C0,2.8,-0.1,1.4,.8,1.1C1.6,.7,2.7,0,5.5,0C8.2,0,13.9,29.9,11.6,31.1C9.2,32.3,7,30.4,7,30.4C7,30.4,8.6,29.1,8.9,28C7,12,3.4,3.3,3.4,3.3L0,2.8z" fill-rule="evenodd" transform="translate(73.58,17.51)"/>
            <path fill="#f7e9e0" id="shape147" d="M0,0C0,0,5.1,1,7.3,1.8C9.5,2.7,9,4.8,6.6,3.7C4.1,2.7,0,0,0,0z" fill-rule="evenodd" transform="translate(52.54,36.3)"/>
            <path fill="#f0d1bf" id="shape148" d="M0,0C0,0,1.7,4.3,2.5,5C3.2,5.8,2.9,3,2,1.8C1.1,.6,0,0,0,0z" fill-rule="evenodd" transform="translate(72.77,41.17)"/>
            <path fill="#f8ecd2" id="shape149" d="M0,.2C0,-0.6,3.2,1.1,5.2,1.1C7.2,1.1,8.3,.5,8.3,1.4C8.3,2.2,6.7,2.9,4.8,2.9C2.8,2.9,0,1.1,0,.2z" fill-rule="evenodd" transform="translate(66.97,27.65)"/>
        </g>
        <g id="shape150" transform="translate(217.71,107.25)">
            <text xml:space="preserve" style="fill:#191919;font-family:微软雅黑;font-size:20pt">
                <tspan y="39.2" style="fill:#0070c0;font-size:22pt;font-weight:bold" x="51.5">S</tspan>
                <tspan style="font-size:22pt" x="69.1">trength</tspan>
                <tspan y="78.4" style="font-size:22pt" x="83.9">优势</tspan>
                <tspan y="148" x="3.2 30.2 57.2 84.2 ">受众广泛</tspan>
                <tspan y="182.4" x="3.2 30.2 57.2 84.2 ">重视合作</tspan>
                <tspan y="216.8" x="3.2 30.2 57.2 84.2 111.2 138.2 165.2 ">高质量交流社区</tspan>
                <tspan y="251.2" x="3.2 30.2 57.2 84.2 ">简单易用</tspan>
            </text>
        </g>
        <g id="shape151" transform="translate(204.21,421.25)">
            <text xml:space="preserve" style="fill:#191919;font-family:微软雅黑;font-size:20pt">
                <tspan y="109.2" style="fill:#ffc000;font-size:22pt;font-weight:bold" x="8.4">O</tspan>
                <tspan style="font-size:22pt" x="32.4">pportunity</tspan>
                <tspan y="148.4" style="font-size:22pt" x="66.8">机会</tspan>
            </text>
        </g>
        <g id="shape152" transform="translate(808.25,148.75)">
            <text xml:space="preserve" style="fill:#191919;font-family:微软雅黑;font-size:20pt">
                <tspan y="35.7" style="fill:#ff0000;font-size:22pt;font-weight:bold" x="41.9">W</tspan>
                <tspan style="font-size:22pt" x="73.9">eakness</tspan>
                <tspan y="74.9" style="font-size:22pt" x="83.9">劣势</tspan>
                <tspan y="144.5" x="3.2 30.2 57.2 84.2 111.2 ">推广成本高</tspan>
                <tspan y="178.9" x="3.2 30.2 57.2 84.2 111.2 138.2 165.2 192.2 ">收入来源较为单一</tspan>
            </text>
        </g>
        <g id="shape153" transform="translate(808.25,522.75)">
            <text xml:space="preserve" style="fill:#191919;font-family:微软雅黑;font-size:20pt">
                <tspan y="39.2" style="fill:#00b050;font-size:22pt;font-weight:bold" x="67.5">T</tspan>
                <tspan style="font-size:22pt" x="85.9">hreat</tspan>
                <tspan y="78.4" style="font-size:22pt" x="83.9">挑战</tspan>
                <tspan y="148" x="3.2 30.2 57.2 84.2 111.2 138.2 165.2 ">没有技术护城河</tspan>
                <tspan y="182.4" x="3.2 30.2 57.2 84.2 ">易被模仿</tspan>
                <tspan y="216.8" x="3.2 30.2 57.2 84.2 111.2 138.2 165.2 ">社区维护成本高</tspan>
            </text>
        </g>
        <g id="shape154" transform="translate(57,9)">
            <text xml:space="preserve" style="fill:#000000;font-family:微软雅黑;font-size:26pt">
                <tspan y="44" style="font-weight:bold" x="31.2">Workep</tspan>
                <tspan y="89.6" style="font-weight:bold" x="12">SWOT模型</tspan>
            </text>
        </g>
        <g id="shape155" transform="translate(217.72,546.06)">
            <text xml:space="preserve" style="fill:#191919;font-family:微软雅黑;font-size:20pt">
                <tspan y="80.7" x="3.446 30.446 57.446 84.446 111.446 138.446 165.446 192.446 219.446 ">渠道丰富、品牌建设</tspan>
                <tspan y="115.1" x="3.446 30.446 57.446 84.446 111.446 138.446 165.446 192.446 219.446 246.446 273.446 300.446 327.446 ">健康需求闭环、业务有机结合</tspan>
                <tspan y="149.5" x="3.446 30.446 57.446 84.446 111.446 138.446 165.446 192.446 ">稳定更新的知识库</tspan>
            </text>
        </g>
    </g>
</svg>
